<mxfile host="app.diagrams.net" agent="Mozilla/5.0 (Macintosh; Intel Mac OS X 10_15_7) AppleWebKit/537.36 (KHTML, like Gecko) Chrome/128.0.0.0 Safari/537.36" version="24.7.16">
  <diagram name="Page-1" id="mZI8TU56h4EfjvggIvn8">
    <mxGraphModel dx="1421" dy="689" grid="1" gridSize="10" guides="1" tooltips="1" connect="1" arrows="1" fold="1" page="1" pageScale="1" pageWidth="827" pageHeight="1169" math="0" shadow="0">
      <root>
        <mxCell id="0" />
        <mxCell id="1" parent="0" />
        <mxCell id="sCDYAXPlD_U_MaXzedzM-4" value="" style="edgeStyle=orthogonalEdgeStyle;rounded=0;orthogonalLoop=1;jettySize=auto;html=1;" edge="1" parent="1" source="sCDYAXPlD_U_MaXzedzM-1" target="sCDYAXPlD_U_MaXzedzM-2">
          <mxGeometry relative="1" as="geometry" />
        </mxCell>
        <mxCell id="sCDYAXPlD_U_MaXzedzM-6" value="LAN" style="edgeLabel;html=1;align=center;verticalAlign=middle;resizable=0;points=[];" vertex="1" connectable="0" parent="sCDYAXPlD_U_MaXzedzM-4">
          <mxGeometry x="-0.125" relative="1" as="geometry">
            <mxPoint as="offset" />
          </mxGeometry>
        </mxCell>
        <mxCell id="sCDYAXPlD_U_MaXzedzM-1" value="Siglent Scope" style="rounded=0;whiteSpace=wrap;html=1;verticalAlign=top;align=center;" vertex="1" parent="1">
          <mxGeometry x="120" y="160" width="120" height="90" as="geometry" />
        </mxCell>
        <mxCell id="sCDYAXPlD_U_MaXzedzM-5" value="LAN&lt;div&gt;Serial&lt;/div&gt;&lt;div&gt;USB&lt;/div&gt;" style="edgeStyle=orthogonalEdgeStyle;rounded=0;orthogonalLoop=1;jettySize=auto;html=1;" edge="1" parent="1" source="sCDYAXPlD_U_MaXzedzM-2" target="sCDYAXPlD_U_MaXzedzM-3">
          <mxGeometry relative="1" as="geometry" />
        </mxCell>
        <mxCell id="sCDYAXPlD_U_MaXzedzM-2" value="PC" style="rounded=0;whiteSpace=wrap;html=1;verticalAlign=top;align=center;" vertex="1" parent="1">
          <mxGeometry x="320" y="160" width="120" height="90" as="geometry" />
        </mxCell>
        <mxCell id="sCDYAXPlD_U_MaXzedzM-3" value="&amp;nbsp;non siglent AWG" style="rounded=0;whiteSpace=wrap;html=1;verticalAlign=middle;" vertex="1" parent="1">
          <mxGeometry x="520" y="160" width="120" height="90" as="geometry" />
        </mxCell>
        <mxCell id="sCDYAXPlD_U_MaXzedzM-11" value="LAN&lt;div&gt;Serial&lt;/div&gt;&lt;div&gt;USB&lt;/div&gt;" style="edgeStyle=orthogonalEdgeStyle;rounded=0;orthogonalLoop=1;jettySize=auto;html=1;" edge="1" parent="1" source="sCDYAXPlD_U_MaXzedzM-12" target="sCDYAXPlD_U_MaXzedzM-13">
          <mxGeometry relative="1" as="geometry" />
        </mxCell>
        <mxCell id="sCDYAXPlD_U_MaXzedzM-12" value="PC" style="rounded=0;whiteSpace=wrap;html=1;verticalAlign=top;align=center;" vertex="1" parent="1">
          <mxGeometry x="190" y="300" width="250" height="90" as="geometry" />
        </mxCell>
        <mxCell id="sCDYAXPlD_U_MaXzedzM-13" value="&amp;nbsp;non siglent AWG" style="rounded=0;whiteSpace=wrap;html=1;verticalAlign=middle;" vertex="1" parent="1">
          <mxGeometry x="520" y="300" width="120" height="90" as="geometry" />
        </mxCell>
        <mxCell id="sCDYAXPlD_U_MaXzedzM-17" value="" style="edgeStyle=orthogonalEdgeStyle;rounded=0;orthogonalLoop=1;jettySize=auto;html=1;" edge="1" parent="1" source="sCDYAXPlD_U_MaXzedzM-14" target="sCDYAXPlD_U_MaXzedzM-15">
          <mxGeometry relative="1" as="geometry" />
        </mxCell>
        <mxCell id="sCDYAXPlD_U_MaXzedzM-14" value="Automation&lt;div&gt;via&lt;/div&gt;&lt;div&gt;VISA&lt;/div&gt;" style="shape=process;whiteSpace=wrap;html=1;backgroundOutline=1;" vertex="1" parent="1">
          <mxGeometry x="220" y="330" width="79" height="40" as="geometry" />
        </mxCell>
        <mxCell id="sCDYAXPlD_U_MaXzedzM-15" value="bode.py" style="shape=process;whiteSpace=wrap;html=1;backgroundOutline=1;" vertex="1" parent="1">
          <mxGeometry x="344" y="330" width="70" height="40" as="geometry" />
        </mxCell>
        <mxCell id="sCDYAXPlD_U_MaXzedzM-16" value="bode.py" style="shape=process;whiteSpace=wrap;html=1;backgroundOutline=1;" vertex="1" parent="1">
          <mxGeometry x="344" y="190" width="70" height="40" as="geometry" />
        </mxCell>
        <mxCell id="sCDYAXPlD_U_MaXzedzM-18" value="Bode Plot" style="shape=process;whiteSpace=wrap;html=1;backgroundOutline=1;" vertex="1" parent="1">
          <mxGeometry x="144" y="190" width="70" height="40" as="geometry" />
        </mxCell>
        <mxCell id="sCDYAXPlD_U_MaXzedzM-19" value="OR" style="text;html=1;align=center;verticalAlign=middle;whiteSpace=wrap;rounded=0;" vertex="1" parent="1">
          <mxGeometry x="344" y="260" width="60" height="30" as="geometry" />
        </mxCell>
      </root>
    </mxGraphModel>
  </diagram>
</mxfile>
